
        <svg xmlns="http://www.w3.org/2000/svg" xmlns:xlink="http://www.w3.org/1999/xlink" version="1.1" width="3162.1621621621625" 
        height="1024.4566289148288" viewBox="0 0 3162.1621621621625 1024.4566289148288">
			
			<g transform="scale(8.108108108108109) translate(10, 10)">
				<defs id="SvgjsDefs9132"></defs><g id="SvgjsG9133" featureKey="v37d4h-0" transform="matrix(1.18187057853517,0,0,1.18187057853517,-9.094338762202646,-5.9186138710012495)" fill="#9896f1"><path xmlns="http://www.w3.org/2000/svg" fill-rule="evenodd" clip-rule="evenodd" d="M67.416,73.853c0.627,0.133,1.122,0.628,1.485,1.485  c0.297,0.693,0.445,1.354,0.445,1.98c0,0.363-0.049,0.562-0.148,0.595c-0.463,0.329-0.727,0.759-0.792,1.287  c0,0.296,0.065,0.511,0.198,0.644c0.099,0.164,0.462,0.248,1.089,0.248c0.66-0.033,1.122-0.133,1.386-0.299  c0.297-0.131,0.512-0.28,0.644-0.444c0.132-0.198,0.198-0.396,0.198-0.595c0.066-0.462-0.099-0.908-0.495-1.336  c-0.165-0.231-0.479-0.528-0.94-0.892l-0.692-0.544l-0.348-0.396l0.446-0.297c0.329-0.166,0.66-0.248,0.989-0.248  c0.661,0,1.287,0.133,1.882,0.396c1.121,0.495,1.913,1.353,2.376,2.574c0.296,0.858,0.296,1.766,0,2.723  c-0.099,0.33-0.347,0.792-0.743,1.387c-0.495,0.561-0.891,0.923-1.188,1.088c-0.165,0.133-0.644,0.396-1.436,0.792  c-0.793,0.231-1.32,0.364-1.584,0.396c-1.519,0.198-2.889-0.049-4.108-0.742c-0.76-0.43-1.37-1.089-1.832-1.98  c-0.429-0.892-0.61-1.798-0.545-2.723c0.099-1.98,0.925-3.563,2.476-4.752C66.575,73.903,66.987,73.787,67.416,73.853z   M61.971,68.854c0.231-0.265,0.462-0.396,0.693-0.396c7.029,0,12.028,0.396,14.999,1.187c1.484,0.396,2.277,0.793,2.376,1.188  c-0.099,0.396-0.892,0.81-2.376,1.238c-3.004,0.792-8.003,1.188-14.999,1.188c-0.231,0-0.462-0.131-0.693-0.396  c-0.329-0.429-0.495-1.105-0.495-2.03C61.476,69.942,61.642,69.282,61.971,68.854z M69.892,58.111  c0.329-0.166,0.66-0.248,0.989-0.248c0.661,0,1.287,0.132,1.882,0.396c1.154,0.495,1.947,1.37,2.376,2.624  c0.296,0.858,0.296,1.749,0,2.674c-0.099,0.329-0.347,0.792-0.743,1.386c-0.495,0.562-0.891,0.924-1.188,1.089  c-0.165,0.132-0.644,0.396-1.436,0.792c-0.793,0.231-1.32,0.364-1.584,0.396c-1.453,0.265-2.822,0.017-4.108-0.742  c-0.76-0.43-1.37-1.09-1.832-1.98c-0.429-0.892-0.61-1.799-0.545-2.723c0.099-1.98,0.925-3.564,2.476-4.753  c0.561-0.264,0.974-0.379,1.237-0.347c0.627,0.132,1.122,0.627,1.485,1.485c0.297,0.693,0.445,1.354,0.445,1.98  c0,0.363-0.049,0.561-0.148,0.594c-0.463,0.33-0.727,0.76-0.792,1.287c0,0.297,0.065,0.512,0.198,0.644  c0.099,0.165,0.462,0.247,1.089,0.247c0.66-0.032,1.122-0.131,1.386-0.297c0.297-0.131,0.512-0.28,0.644-0.445  c0.132-0.198,0.198-0.396,0.198-0.594c0.066-0.462-0.099-0.908-0.495-1.337c-0.165-0.23-0.479-0.528-0.94-0.891l-0.692-0.544  l-0.348-0.396L69.892,58.111z M87.415,51.181c-0.693,0.065-1.402,0.099-2.129,0.099c-12.606,0-23.679-0.033-33.216-0.099  c-0.099,12.606-0.264,22.558-0.495,29.851c-0.165,4.555-0.313,7.673-0.445,9.356l4.009-0.198c1.058-0.099,2.674-0.23,4.853-0.396  l4.9-0.544c5.577-0.925,8.895-1.503,9.95-1.733c1.881-0.462,3.481-0.924,4.801-1.386c1.783-0.627,3.201-1.337,4.258-2.13  c1.287-0.824,2.195-1.848,2.723-3.068c0.463-0.99,0.76-2.509,0.891-4.554c0.067-1.156,0.067-2.971,0-5.446L87.415,51.181z   M75.139,29.942c1.057,0.396,1.617,0.792,1.683,1.188c-0.065,0.396-0.644,0.792-1.732,1.188c-2.178,0.792-5.809,1.188-10.891,1.188  c-0.165,0-0.33-0.132-0.495-0.396c-0.23-0.43-0.346-1.09-0.346-1.98c0-0.892,0.115-1.552,0.346-1.98  c0.165-0.264,0.33-0.396,0.495-0.396C69.313,28.754,72.96,29.15,75.139,29.942z M25.982,66.625l2.376,0.693  c1.254,0.66,2.756,1.732,4.505,3.218c0.989-1.089,2.096-2.244,3.317-3.465c0.165-0.165,0.428-0.231,0.791-0.198  c0.528,0.1,1.106,0.462,1.732,1.09c0.627,0.626,0.975,1.204,1.04,1.732c0.066,0.362,0,0.627-0.198,0.792  c-1.122,1.121-2.195,2.161-3.218,3.118c0.793,0.76,1.634,1.585,2.525,2.475c0.429,0.596,0.115,1.42-0.94,2.476  c-0.628,0.628-1.205,0.974-1.732,1.04c-0.33,0.066-0.578,0.017-0.743-0.148c-0.957-0.957-1.832-1.849-2.624-2.674  c-1.782,1.485-3.3,2.592-4.554,3.318c-1.319,0.791-2.162,1.072-2.524,0.841c-0.198-0.363,0.082-1.205,0.841-2.524  c0.759-1.32,1.915-2.904,3.466-4.753c-1.551-1.815-2.674-3.366-3.367-4.653L25.982,66.625z M32.071,24.794  c0.924,0,1.601,0.132,2.029,0.396c0.265,0.165,0.396,0.346,0.396,0.544c0,1.617-0.033,3.119-0.099,4.505  c1.583,0.165,2.887,0.413,3.909,0.742c1.256,0.396,1.915,0.792,1.98,1.188c-0.065,0.396-0.742,0.809-2.029,1.238  c-1.089,0.329-2.491,0.61-4.208,0.841c-0.198,1.387-0.445,2.542-0.742,3.466c-0.429,1.188-0.841,1.815-1.237,1.881  c-0.396-0.065-0.792-0.693-1.188-1.881c-0.297-0.858-0.528-1.931-0.692-3.219c-1.387,0.067-2.888,0.1-4.506,0.1  c-0.229,0-0.428-0.132-0.594-0.396c-0.264-0.428-0.396-1.104-0.396-2.029c0-0.892,0.132-1.551,0.396-1.98  c0.199-0.264,0.396-0.396,0.594-0.396c1.485,0,2.855,0.032,4.109,0.1c-0.065-1.287-0.099-2.674-0.099-4.159  C29.695,25.108,30.487,24.794,32.071,24.794z M86.128,9.695c0.197-0.066,0.412,0.016,0.644,0.247  c-0.033-0.099-0.082-0.215-0.148-0.347c-0.562-1.319-1.699-2.228-3.415-2.723c-2.277-0.693-6.04-0.775-11.287-0.247L51.724,8.408  c0.33,0.824,0.495,2.359,0.495,4.604c0,13.564-0.032,25.479-0.1,35.742c9.506-0.099,20.561-0.148,33.167-0.148  c0.792,0,1.502,0.033,2.129,0.1l-0.049-7.426c0-2.674-0.033-4.703-0.1-6.09l-1.633-17.376C85.071,12.566,85.237,9.86,86.128,9.695z   M11.726,62.121C11.66,67.4,12.188,72.236,13.31,76.626c0.23,0.857,0.562,2.145,0.99,3.86c0.396,1.485,0.775,2.69,1.139,3.614  c0.957,2.442,2.376,4.026,4.257,4.753l1.634,0.445c0.396,0.099,1.072,0.181,2.029,0.248c2.079,0.23,3.466,0.346,4.159,0.346  c1.913,0.1,4.883,0.182,8.91,0.248l14.256,0.247c-0.164-1.684-0.313-4.835-0.444-9.455c-0.266-7.294-0.446-17.229-0.546-29.802  c-11.615-0.1-20.791-0.265-27.522-0.495l-9.653-0.644C12.022,55.141,11.759,59.184,11.726,62.121z M12.666,48.309  c-0.066,0.562-0.115,1.106-0.148,1.634l9.753-0.644c6.731-0.231,15.873-0.413,27.423-0.545c-0.099-10.264-0.147-22.178-0.147-35.742  c0-1.188,0.082-2.26,0.247-3.217c0.066-0.528,0.166-0.941,0.297-1.238c-1.155,0.099-2.062,0.197-2.723,0.297l-3.663,0.545  c-3.068,0.429-5.677,0.858-7.82,1.286c-4.754,0.858-7.641,1.42-8.663,1.684c-3.829,0.957-6.684,2.079-8.564,3.367  c-1.32,0.957-2.326,2.062-3.02,3.316c-0.265,0.429-0.562,1.139-0.892,2.129l-0.297,1.188l-0.841,12.971  C13.607,38.078,13.293,42.4,12.666,48.309z M11.577,19.844c0.363-0.858,0.562-1.337,0.594-1.437l0.743-1.386  c1.022-1.683,2.442-3.069,4.257-4.158c1.452-0.892,3.102-1.65,4.95-2.277c1.122-0.363,2.706-0.775,4.752-1.237  c1.09-0.264,4.043-0.775,8.861-1.534c1.584-0.266,4.24-0.611,7.97-1.041l13.515-1.188l14.802-0.494  c5.412-0.266,9.256,0.099,11.533,1.088c1.09,0.463,1.931,1.072,2.524,1.832c0.331,0.495,0.578,1.007,0.742,1.535l0.1,0.594  c0.727,0.892,1.601,3.234,2.623,7.029c0.364,1.452,0.793,3.581,1.288,6.387l1.188,11.386c0.066,1.419,0.116,3.532,0.148,6.337v24.01  c-0.032,1.155-0.016,3.02,0.05,5.594c0.1,2.508,0.116,4.455,0.049,5.842c-0.264,2.805-0.725,4.901-1.385,6.287  c-0.231,0.562-0.528,1.057-0.892,1.484c-0.066,0.1-0.413,0.563-1.039,1.387l-1.238,1.139c-0.462,0.429-0.892,0.743-1.287,0.94  c-1.419,0.99-3.201,1.865-5.346,2.624c-1.75,0.627-3.548,1.121-5.396,1.485c-2.31,0.527-5.759,1.121-10.346,1.782l-5.099,0.544  c-2.244,0.165-3.928,0.298-5.049,0.396l-4.901,0.198l-18.762-0.545c-0.032,0-1.534-0.05-4.504-0.148l-4.555-0.445  c-1.815-0.199-3.398-0.578-4.752-1.139c-1.617-0.66-2.987-1.716-4.108-3.168c-0.826-1.09-1.585-2.492-2.278-4.208  c-0.396-1.123-0.809-2.492-1.237-4.109c-0.561-2.376-0.874-3.664-0.94-3.861c-1.089-4.521-1.567-9.736-1.436-15.644  c0.099-3.399,0.495-8.118,1.188-14.158c0.659-5.842,1.007-10.082,1.039-12.723l0.347-6.09c0.033-0.726,0.247-2.689,0.644-5.891  C10.967,22.171,11.182,21.163,11.577,19.844z"></path></g><g id="SvgjsG9134" featureKey="UxBHKT-0" transform="matrix(2.5949762248607717,0,0,2.5949762248607717,117.76832071884357,3.3365157257079723)" fill="#9896f1"><path d="M9.72 18.9 q-0.38 0.52 -1.31 0.93 t-2.03 0.41 q-1.7 0 -2.95 -0.76 t-1.91 -2.07 t-0.66 -2.91 t0.66 -2.91 t1.91 -2.07 t2.95 -0.76 q1.14 0 2.01 0.39 t1.33 0.99 l0 -1.14 l2.96 0 l0 11 l-2.96 0 l0 -1.1 z M9.02 12.25 q-0.82 -0.87 -2.2 -0.87 q-1.4 0 -2.21 0.87 t-0.81 2.25 q0 1.34 0.83 2.22 t2.19 0.88 q1.4 0 2.21 -0.83 t0.81 -2.27 q0 -1.38 -0.82 -2.25 z M14.36 9.04 l3.18 0 l1.84 4.88 l2.66 -5.48 l2.7 5.5 l1.9 -4.9 l3.16 0 l-4.72 11.42 l-3.04 -5.84 l-3 5.84 z M34.29 19.74 q-1.37 -0.54 -2.35 -1.83 t-0.98 -3.37 t0.99 -3.36 t2.37 -1.82 t2.62 -0.54 q1.44 0 2.74 0.64 t2.13 1.88 t0.87 2.94 q0 0.52 -0.02 0.9 t-0.04 0.48 l-8.68 0 q0.24 1.16 1.2 1.58 t1.8 0.42 q1.08 0 1.72 -0.39 t1.1 -0.89 l2.32 1.34 q-1.88 2.56 -5.14 2.56 q-1.28 0 -2.65 -0.54 z M34.9 12.05 q-0.78 0.61 -0.88 1.49 l5.5 0 q-0.06 -0.52 -0.4 -1 t-0.91 -0.79 t-1.29 -0.31 q-1.24 0 -2.02 0.61 z M53.44 18.9 q-0.38 0.52 -1.31 0.93 t-2.03 0.41 q-1.7 0 -2.95 -0.76 t-1.91 -2.07 t-0.66 -2.91 t0.66 -2.91 t1.91 -2.07 t2.95 -0.76 q1.14 0 2.01 0.39 t1.33 0.99 l0 -5.26 l2.96 0 l0 15.12 l-2.96 0 l0 -1.1 z M52.739999999999995 12.25 q-0.82 -0.87 -2.2 -0.87 q-1.4 0 -2.21 0.87 t-0.81 2.25 q0 1.34 0.83 2.22 t2.19 0.88 q1.4 0 2.21 -0.83 t0.81 -2.27 q0 -1.38 -0.82 -2.25 z M62.169999999999995 19.74 q-1.37 -0.54 -2.35 -1.83 t-0.98 -3.37 t0.99 -3.36 t2.37 -1.82 t2.62 -0.54 q1.44 0 2.74 0.64 t2.13 1.88 t0.87 2.94 q0 0.52 -0.02 0.9 t-0.04 0.48 l-8.68 0 q0.24 1.16 1.2 1.58 t1.8 0.42 q1.08 0 1.72 -0.39 t1.1 -0.89 l2.32 1.34 q-1.88 2.56 -5.14 2.56 q-1.28 0 -2.65 -0.54 z M62.779999999999994 12.05 q-0.78 0.61 -0.88 1.49 l5.5 0 q-0.06 -0.52 -0.4 -1 t-0.91 -0.79 t-1.29 -0.31 q-1.24 0 -2.02 0.61 z M75.78999999999999 19.74 q-1.37 -0.54 -2.35 -1.83 t-0.98 -3.37 t0.99 -3.36 t2.37 -1.82 t2.62 -0.54 q1.44 0 2.74 0.64 t2.13 1.88 t0.87 2.94 q0 0.52 -0.02 0.9 t-0.04 0.48 l-8.68 0 q0.24 1.16 1.2 1.58 t1.8 0.42 q1.08 0 1.72 -0.39 t1.1 -0.89 l2.32 1.34 q-1.88 2.56 -5.14 2.56 q-1.28 0 -2.65 -0.54 z M76.39999999999999 12.05 q-0.78 0.61 -0.88 1.49 l5.5 0 q-0.06 -0.52 -0.4 -1 t-0.91 -0.79 t-1.29 -0.31 q-1.24 0 -2.02 0.61 z M90.3 16.08 q0 0.7 0.24 1.17 t1.12 0.47 q0.4 0 0.76 -0.04 l0 2.52 q-0.72 0.08 -1.34 0.08 q-1.28 0 -2.07 -0.21 t-1.23 -0.81 t-0.44 -1.72 l0 -6.1 l-1.34 0 l0 -2.62 l1.34 0 l0 -2.94 l2.96 0 l0 2.94 l2.2 0 l0 2.62 l-2.2 0 l0 4.64 z M96.71000000000001 19.69 q-0.49 0.47 -1.17 0.47 t-1.16 -0.47 t-0.48 -1.13 q0 -0.64 0.48 -1.12 t1.16 -0.48 t1.17 0.48 t0.49 1.12 q0 0.66 -0.49 1.13 z"></path></g><g id="SvgjsG9135" featureKey="sloganFeature-0" transform="matrix(0.9763254195595215,0,0,0.9763254195595215,121.19941345391206,59.17695237151017)" fill="#9896f1"><path d="M11.92 5.199999999999999 l0 14.8 l-0.56 0 l0 -2.74 c-0.96 1.9 -2.72 3 -4.96 3 c-3.48 0 -5.58 -2.7 -5.58 -5.56 c0 -2.92 2.16 -5.56 5.58 -5.56 c2.56 0 4.4 1.58 4.96 3.06 l0 -2.8 l0 -4.2 l0.56 0 z M1.38 14.7 l0 0.02 c0.02 2.38 1.66 5.02 5.08 5.02 c1.4 0 2.66 -0.56 3.56 -1.48 s1.44 -2.2 1.4 -3.6 c0 -1.42 -0.54 -2.66 -1.44 -3.56 s-2.16 -1.44 -3.58 -1.44 c-2.76 0 -5.02 2.06 -5.02 5.04 z M25.46 9.4 l0 10.6 l-0.56 0 l0 -2.74 c-0.96 1.9 -2.72 3 -4.96 3 c-3.48 0 -5.58 -2.7 -5.58 -5.56 c0 -2.92 2.16 -5.56 5.58 -5.56 c2.56 0 4.4 1.58 4.96 3.06 l0 -2.8 l0.56 0 z M14.920000000000002 14.7 l0 0.02 c0.02 2.38 1.66 5.02 5.08 5.02 c2.26 0 3.98 -1.38 4.66 -3.3 c0.22 -0.58 0.32 -1.22 0.3 -1.86 c0 -0.64 -0.12 -1.28 -0.36 -1.84 c-0.72 -1.84 -2.5 -3.08 -4.66 -3.08 c-2.76 0 -5.02 2.06 -5.02 5.04 z M29.500000000000004 20 l0 -10.08 l-2.34 0 l0 -0.52 l2.34 0 l0 -4.2 l0.56 0 l0 4.2 l2.72 0 l0 0.52 l-2.72 0 l0 10.08 l-0.56 0 z M44.86000000000001 9.4 l0 10.6 l-0.56 0 l0 -2.74 c-0.96 1.9 -2.72 3 -4.96 3 c-3.48 0 -5.58 -2.7 -5.58 -5.56 c0 -2.92 2.16 -5.56 5.58 -5.56 c2.56 0 4.4 1.58 4.96 3.06 l0 -2.8 l0.56 0 z M34.32000000000001 14.7 l0 0.02 c0.02 2.38 1.66 5.02 5.08 5.02 c2.26 0 3.98 -1.38 4.66 -3.3 c0.22 -0.58 0.32 -1.22 0.3 -1.86 c0 -0.64 -0.12 -1.28 -0.36 -1.84 c-0.72 -1.84 -2.5 -3.08 -4.66 -3.08 c-2.76 0 -5.02 2.06 -5.02 5.04 z M55.04 18.38 l0 1.62 l-0.6 0 l0 -1.62 l0.6 0 z M63.519999999999996 20 l0 -10.08 l-2.34 0 l0 -0.52 l2.34 0 l0 -4.2 l0.56 0 l0 4.2 l2.72 0 l0 0.52 l-2.72 0 l0 10.08 l-0.56 0 z M78.72 14.76 l-10.56 0 c0.04 3.46 2.94 5 5.02 4.98 c1.96 0 3.68 -1 4.52 -2.8 l0.62 0 c-0.48 1.12 -1.24 1.96 -2.14 2.52 c-0.9 0.54 -1.94 0.8 -3.02 0.8 c-4 0 -5.58 -3.18 -5.58 -5.54 c0 -3.18 2.44 -5.58 5.6 -5.58 c1.42 0 2.78 0.5 3.8 1.42 c1.16 1.04 1.84 2.64 1.74 4.2 z M68.17999999999999 14.24 l9.98 0 c-0.12 -2.56 -2.5 -4.68 -4.98 -4.58 c-2.62 0 -4.84 1.9 -5 4.58 z M90.38 16.66 l0.62 0 c-0.74 2.16 -2.78 3.6 -5.16 3.6 c-3.78 0 -5.68 -2.86 -5.68 -5.54 c0 -3.14 2.36 -5.58 5.58 -5.58 c2.16 0 4.44 1.2 5.28 3.7 l-0.62 0 c-0.82 -2.34 -3.04 -3.2 -4.64 -3.18 c-1.5 0.02 -2.48 0.44 -3.58 1.42 c-0.86 0.78 -1.46 2.18 -1.46 3.62 c0 3 2.32 5.04 5.02 5.04 c2.4 -0.02 4.12 -1.5 4.64 -3.08 z M93.27999999999999 20 l0 -14.8 l0.56 0 l0 4.24 l0 2.1 c0.7 -1.64 2.62 -2.44 4.3 -2.4 c1.7 0 2.9 0.52 3.7 1.44 s1.16 2.22 1.16 3.82 l0 5.6 l-0.56 0 l0 -5.6 c0 -1.42 -0.3 -2.6 -1 -3.44 c-0.7 -0.82 -1.76 -1.3 -3.3 -1.3 c-1.32 0.02 -2.4 0.42 -3.14 1.14 s-1.16 1.76 -1.16 3.1 l0 6.1 l-0.56 0 z M113.13999999999999 18.38 l0 1.62 l-0.6 0 l0 -1.62 l0.6 0 z M120.7 7.02 l0 -1.82 l0.56 0 l0 1.82 l-0.56 0 z M120.7 20 l0 -10.6 l0.56 0 l0 10.6 l-0.56 0 z M124.38000000000001 20 l0 -10.6 l0.56 0 c0 0.72 0 1.42 -0.02 2.3 c0.72 -1.84 2.56 -2.6 4.44 -2.56 c3.16 0.08 4.74 1.98 4.74 5.16 l0 5.7 l-0.56 0 l0 -5.7 c0 -2.86 -1.4 -4.68 -4.3 -4.64 c-2.52 0.04 -4.3 1.46 -4.3 4.24 l0 6.1 l-0.56 0 z M141.38000000000002 9.92 l-3.3 0 l0 10.08 l-0.56 0 l0 -10.08 l-1.74 0 l0 -0.52 l1.74 0 l0 -1.06 c0 -3.38 2.76 -3.38 3.32 -3.4 l0 0.54 c-0.8 0.06 -2.76 0.06 -2.76 3.02 l0 0.9 l3.3 0 l0 -4.2 l0.56 0 l0 14.8 l-0.56 0 l0 -10.08 z M154.76000000000002 9.4 l0 10.6 l-0.56 0 c0 -0.72 0 -1.42 0.02 -2.3 c-0.72 1.84 -2.56 2.6 -4.44 2.56 c-3.16 -0.08 -4.74 -1.98 -4.74 -5.16 l0 -5.7 l0.56 0 l0 5.7 c0 2.86 1.4 4.68 4.3 4.64 c2.52 -0.04 4.3 -1.46 4.3 -4.24 l0 -6.1 l0.56 0 z M168.08 14.76 l-10.56 0 c0.04 3.46 2.94 5 5.02 4.98 c1.96 0 3.68 -1 4.52 -2.8 l0.62 0 c-0.48 1.12 -1.24 1.96 -2.14 2.52 c-0.9 0.54 -1.94 0.8 -3.02 0.8 c-4 0 -5.58 -3.18 -5.58 -5.54 c0 -3.18 2.44 -5.58 5.6 -5.58 c1.42 0 2.78 0.5 3.8 1.42 c1.16 1.04 1.84 2.64 1.74 4.2 z M157.54000000000002 14.24 l9.98 0 c-0.12 -2.56 -2.5 -4.68 -4.98 -4.58 c-2.62 0 -4.84 1.9 -5 4.58 z M170.26000000000002 20 l0 -10.6 l0.56 0 c0 0.72 0 1.42 -0.02 2.3 c0.72 -1.84 2.56 -2.6 4.44 -2.56 c3.16 0.08 4.74 1.98 4.74 5.16 l0 5.7 l-0.56 0 l0 -5.7 c0 -2.86 -1.4 -4.68 -4.3 -4.64 c-2.52 0.04 -4.3 1.46 -4.3 4.24 l0 6.1 l-0.56 0 z M192.56 16.66 l0.62 0 c-0.74 2.16 -2.78 3.6 -5.16 3.6 c-3.78 0 -5.68 -2.86 -5.68 -5.54 c0 -3.14 2.36 -5.58 5.58 -5.58 c2.16 0 4.44 1.2 5.28 3.7 l-0.62 0 c-0.82 -2.34 -3.04 -3.2 -4.64 -3.18 c-1.5 0.02 -2.48 0.44 -3.58 1.42 c-0.86 0.78 -1.46 2.18 -1.46 3.62 c0 3 2.32 5.04 5.02 5.04 c2.4 -0.02 4.12 -1.5 4.64 -3.08 z M205.66 14.76 l-10.56 0 c0.04 3.46 2.94 5 5.02 4.98 c1.96 0 3.68 -1 4.52 -2.8 l0.62 0 c-0.48 1.12 -1.24 1.96 -2.14 2.52 c-0.9 0.54 -1.94 0.8 -3.02 0.8 c-4 0 -5.58 -3.18 -5.58 -5.54 c0 -3.18 2.44 -5.58 5.6 -5.58 c1.42 0 2.78 0.5 3.8 1.42 c1.16 1.04 1.84 2.64 1.74 4.2 z M195.12 14.24 l9.98 0 c-0.12 -2.56 -2.5 -4.68 -4.98 -4.58 c-2.62 0 -4.84 1.9 -5 4.58 z"></path></g>
			</g>
		</svg>
	