<svg width="118" height="101" viewBox="0 0 118 101" fill="none" xmlns="http://www.w3.org/2000/svg">
<path d="M102.133 2.65024C99.866 4.38358 98.666 6.65024 98.666 8.91691C98.666 13.3169 99.7327 14.9169 103.733 17.0502C106.266 18.3836 107.599 18.2502 111.733 16.2502C118.266 13.0502 119.333 6.91691 113.866 2.65024C109.333 -0.816423 106.666 -0.949757 102.133 2.65024ZM113.066 4.11691C113.999 5.05024 114.666 7.45024 114.666 9.45024C114.666 12.2502 113.866 13.3169 111.199 13.9836C106.533 15.1836 101.333 12.2502 101.333 8.38358C101.333 3.45024 109.466 0.51691 113.066 4.11691Z" fill="black"/>
<path d="M31.4668 5.31689C25.4668 9.98355 27.4668 18.5169 35.0668 20.6502C37.0668 21.1836 39.6001 24.7836 43.0668 31.9836C48.6668 43.5836 59.6001 58.9169 71.0668 71.4502C75.4668 76.1169 78.1334 79.9836 77.3334 80.5169C75.7334 81.4502 75.6001 87.8502 77.0668 89.9836C77.6001 90.7836 79.3334 92.1169 81.0668 93.0502C83.6001 94.3836 84.9334 94.2502 89.0668 92.2502C92.9334 90.3836 94.1334 89.0502 94.4001 85.7169C94.9334 80.2502 89.2001 75.3169 83.8668 76.3836C80.8001 76.9169 79.2001 75.8502 73.0668 69.4502C62.5334 58.3836 51.3334 42.9169 45.2001 31.0502L39.7334 20.6502L43.2001 18.1169C47.8668 14.7836 47.8668 8.91689 43.2001 5.31689C41.2001 3.71689 38.6668 2.51689 37.3334 2.51689C36.0001 2.51689 33.4668 3.71689 31.4668 5.31689ZM42.4001 6.78355C43.3334 7.71689 44.0001 10.1169 44.0001 12.1169C44.0001 14.9169 43.2001 15.9836 40.5334 16.6502C35.8668 17.8502 30.6668 14.9169 30.6668 11.0502C30.6668 6.11689 38.8001 3.18355 42.4001 6.78355ZM90.4001 80.1169C91.3334 81.0502 92.0001 83.4502 92.0001 85.4502C92.0001 88.2502 91.2001 89.3169 88.5334 89.9836C83.8668 91.1836 78.6668 88.2502 78.6668 84.3836C78.6668 79.4502 86.8001 76.5169 90.4001 80.1169Z" fill="black"/>
<path d="M9 82.1836C8.73333 87.7836 9.2 87.8502 4.66667 87.8502C2.13333 87.8502 0 88.3836 0 89.1836C0 89.8502 2 90.5169 4.53333 90.5169C8.93333 90.5169 8.46667 90.7836 9 95.4502L10.2667 100.517L11 95.6836C11.2667 90.7502 10.6667 90.5169 16.5333 90.5169C19.8667 90.5169 22.9333 89.8502 23.3333 89.1836C23.8667 88.3836 21.6 87.8502 17.4667 87.8502H10.8L10.5 82.1836L9.73333 76.5169L9 82.1836Z" fill="black"/>
</svg>
